
<svg width="48" height="48" viewBox="0 0 48 48" fill="none" xmlns="http://www.w3.org/2000/svg">
  <rect width="48" height="48" rx="8" fill="#1D9AC0"/>
  <path d="M13.5 14C13.5 13.4477 13.9477 13 14.5 13H33.5C34.0523 13 34.5 13.4477 34.5 14V18C34.5 18.5523 34.0523 19 33.5 19H14.5C13.9477 19 13.5 18.5523 13.5 18V14Z" fill="white"/>
  <path d="M13.5 25C13.5 24.4477 13.9477 24 14.5 24H33.5C34.0523 24 34.5 24.4477 34.5 25V29C34.5 29.5523 34.0523 30 33.5 30H14.5C13.9477 30 13.5 29.5523 13.5 29V25Z" fill="white" fill-opacity="0.7"/>
  <path d="M22.5 33C21.9477 33 21.5 33.4477 21.5 34V38C21.5 38.5523 21.9477 39 22.5 39H26.5C27.0523 39 27.5 38.5523 27.5 38V34C27.5 33.4477 27.0523 33 26.5 33H22.5Z" fill="white" fill-opacity="0.5"/>
  <path d="M32.0083 14.5414C31.3609 13.8625 30.2391 13.8357 29.5602 14.4831C28.8812 15.1305 28.8545 16.2523 29.5019 16.9313L32.0083 14.5414ZM33.5 19L35.5 19C35.5 17.8954 34.6046 17 33.5 17V19ZM32.0083 14.5414L29.5019 16.9313L29.5019 16.9313L32.0083 14.5414ZM29.5019 16.9313C30.1493 17.6103 31.271 17.637 31.95 16.9896C32.629 16.3422 32.6557 15.2205 32.0083 14.5415L29.5019 16.9313ZM31.5 19V17H29.5V19H31.5ZM32.0083 14.5415C31.3609 13.8625 30.2391 13.8357 29.5602 14.4831C28.8812 15.1305 28.8544 16.2523 29.5019 16.9313L32.0083 14.5415Z" fill="#1D9AC0"/>
</svg>
